<svg id="Capa_1" enable-background="new 0 0 511 511" height="512" viewBox="0 0 511 511" width="512" xmlns="http://www.w3.org/2000/svg"><g id="Outline_11_"><g><g><path d="m427.5 503.5h-404v-152h404c41.974 0 76 34.026 76 76 0 41.974-34.026 76-76 76z" fill="#edeaee"/><path d="m479.056 371.677c-4.08 38.127-36.346 67.823-75.556 67.823h-380v64h404c41.974 0 76-34.026 76-76 0-22.072-9.418-41.938-24.444-55.823z" fill="#dbd4dd"/><path d="m427.5 351.5h-420v32h420c24.262 0 44 19.738 44 44s-19.738 44-44 44h-420v32h420c41.974 0 76-34.026 76-76 0-41.974-34.026-76-76-76z" fill="#fbc137"/></g><g><path d="m391.5 159.5h-368v-152h368c41.974 0 76 34.026 76 76 0 41.974-34.026 76-76 76z" fill="#edeaee"/><path d="m449.934 34.913c-7.124 34.583-37.741 60.587-74.434 60.587h-352v64h368c41.974 0 76-34.026 76-76 0-18.48-6.601-35.414-17.566-48.587z" fill="#dbd4dd"/><path d="m391.5 7.5h-384v32h384c24.262 0 44 19.738 44 44s-19.738 44-44 44h-384v32h384c41.974 0 76-34.026 76-76 0-41.974-34.026-76-76-76z" fill="#746eff"/></g><g><path d="m159.5 159.5h320v192h-320c-53.019 0-96-42.981-96-96 0-53.019 42.981-96 96-96z" fill="#edeaee"/><path d="m183.5 287.5c-52.851 0-95.722-42.71-95.994-95.497-14.937 16.923-24.006 39.149-24.006 63.497 0 53.019 42.98 96 96 96h320v-64z" fill="#dbd4dd"/><path d="m159.5 191.5h344v-32h-344c-53.02 0-96 42.981-96 96 0 53.019 42.98 96 96 96h344v-32h-344c-35.29 0-64-28.71-64-64s28.71-64 64-64z" fill="#6f5575"/><path d="m351.5 287.5-24-16-24 16v-96h48z" fill="#e7714e"/></g></g><g><path d="m223.5 408h-96c-4.143 0-7.5 3.358-7.5 7.5s3.357 7.5 7.5 7.5h96c4.143 0 7.5-3.358 7.5-7.5s-3.357-7.5-7.5-7.5z"/><path d="m410.152 431h-128c-4.143 0-7.5 3.358-7.5 7.5s3.357 7.5 7.5 7.5h128c4.143 0 7.5-3.358 7.5-7.5s-3.357-7.5-7.5-7.5z"/><path d="m207.5 101.565h136c4.143 0 7.5-3.358 7.5-7.5s-3.357-7.5-7.5-7.5h-136c-4.143 0-7.5 3.358-7.5 7.5s3.357 7.5 7.5 7.5z"/><path d="m487 199h16.5c4.143 0 7.5-3.358 7.5-7.5v-32c0-4.142-3.357-7.5-7.5-7.5h-64.335c21.639-15.103 35.835-40.168 35.835-68.5 0-46.042-37.458-83.5-83.5-83.5h-384c-4.143 0-7.5 3.358-7.5 7.5v32c0 4.142 3.357 7.5 7.5 7.5h8.5v73h-8.5c-4.143 0-7.5 3.358-7.5 7.5v32c0 4.142 3.357 7.5 7.5 7.5h98.381c-29.881 18.171-49.881 51.044-49.881 88.5s20 70.329 49.881 88.5h-98.381c-4.143 0-7.5 3.358-7.5 7.5v32c0 4.142 3.357 7.5 7.5 7.5h8.5v73h-8.5c-4.143 0-7.5 3.358-7.5 7.5v32c0 4.142 3.357 7.5 7.5 7.5h420c46.042 0 83.5-37.458 83.5-83.5 0-28.332-14.196-53.397-35.835-68.5h28.335c4.143 0 7.5-3.358 7.5-7.5v-32c0-4.142-3.357-7.5-7.5-7.5h-16.5zm-472-47v-17h48.5c4.143 0 7.5-3.358 7.5-7.5s-3.357-7.5-7.5-7.5h-32.5v-41h120.5c4.143 0 7.5-3.358 7.5-7.5s-3.357-7.5-7.5-7.5h-120.5v-17h360.5c20.126 0 36.5 16.374 36.5 36.5s-16.374 36.5-36.5 36.5h-291.956c-4.143 0-7.5 3.358-7.5 7.5s3.357 7.5 7.5 7.5h291.956c28.397 0 51.5-23.103 51.5-51.5s-23.103-51.5-51.5-51.5h-376.5v-17h376.5c37.771 0 68.5 30.729 68.5 68.5s-30.729 68.5-68.5 68.5zm16 271h64.5c4.143 0 7.5-3.358 7.5-7.5s-3.357-7.5-7.5-7.5h-64.5v-17h396.5c20.126 0 36.5 16.374 36.5 36.5s-16.374 36.5-36.5 36.5h-396.5zm465 4.5c0 37.771-30.729 68.5-68.5 68.5h-412.5v-17h412.5c28.397 0 51.5-23.103 51.5-51.5s-23.103-51.5-51.5-51.5h-412.5v-17h412.5c37.771 0 68.5 30.729 68.5 68.5zm-120.5-115.5c-4.143 0-7.5 3.358-7.5 7.5s3.357 7.5 7.5 7.5h120.5v17h-336.5c-48.799 0-88.5-39.701-88.5-88.5s39.701-88.5 88.5-88.5h336.5v17h-336.5c-39.425 0-71.5 32.075-71.5 71.5s32.075 71.5 71.5 71.5h180.305c4.143 0 7.5-3.358 7.5-7.5s-3.357-7.5-7.5-7.5h-180.305c-31.154 0-56.5-25.346-56.5-56.5s25.346-56.5 56.5-56.5h136.5v17h-56.5c-4.143 0-7.5 3.358-7.5 7.5s3.357 7.5 7.5 7.5h56.5v17h-136.5c-4.143 0-7.5 3.358-7.5 7.5s3.357 7.5 7.5 7.5h136.5v24.5c0 5.867 6.763 9.506 11.66 6.24l19.84-13.227 19.84 13.227c4.9 3.268 11.66-.377 11.66-6.24v-24.5h40.5c4.143 0 7.5-3.358 7.5-7.5s-3.357-7.5-7.5-7.5h-40.5v-49h113v17h-72.5c-4.143 0-7.5 3.358-7.5 7.5s3.357 7.5 7.5 7.5h72.5v17h-32.5c-4.143 0-7.5 3.358-7.5 7.5s3.357 7.5 7.5 7.5h32.5v17h-88.5c-4.143 0-7.5 3.358-7.5 7.5s3.357 7.5 7.5 7.5h88.5v17zm-31.5-38.514-12.34-8.227c-1.26-.84-2.71-1.26-4.16-1.26s-2.9.42-4.16 1.26l-12.34 8.227v-74.486h33z"/><path d="m271.5 280h-80c-4.143 0-7.5 3.358-7.5 7.5s3.357 7.5 7.5 7.5h80c4.143 0 7.5-3.358 7.5-7.5s-3.357-7.5-7.5-7.5z"/></g></g></svg>