<svg height="512pt" viewBox="0 0 512 511" width="512pt" xmlns="http://www.w3.org/2000/svg"><path d="m228.570312 192.445312v-18.285156h-73.140624v18.285156c.003906 5.046876 4.09375 9.140626 9.140624 9.144532h54.859376c5.046874-.003906 9.136718-4.097656 9.140624-9.144532zm0 0"/><path d="m0 110.160156h512v-18.285156h-512zm0 0"/><path d="m18.285156 466.730469h475.429688v-18.285157c-.003906-5.046874-4.097656-9.136718-9.144532-9.140624h-457.140624c-5.046876.003906-9.140626 4.09375-9.144532 9.140624zm0 0"/><path d="m172.527344 421.019531h38.945312c10.074219-66.671875 10.074219-134.476562 0-201.144531h-38.945312c-10.074219 66.667969-10.074219 134.472656 0 201.144531zm0 0"/><path d="m44.527344 421.019531h38.945312c10.074219-66.671875 10.074219-134.476562 0-201.144531h-38.945312c-10.074219 66.667969-10.074219 134.472656 0 201.144531zm0 0"/><path d="m100.570312 192.445312v-18.285156h-73.140624v18.285156c.003906 5.046876 4.09375 9.140626 9.140624 9.144532h54.859376c5.046874-.003906 9.136718-4.097656 9.140624-9.144532zm0 0"/><path d="m356.570312 192.445312v-18.285156h-73.140624v18.285156c.003906 5.046876 4.09375 9.140626 9.140624 9.144532h54.859376c5.046874-.003906 9.136718-4.097656 9.140624-9.144532zm0 0"/><path d="m258.953125.996094c-1.921875-.664063-4.011719-.660156-5.933594.007812l-208.171875 72.585938h422.304688zm0 0"/><path d="m484.570312 192.445312v-18.285156h-73.140624v18.285156c.003906 5.046876 4.09375 9.140626 9.140624 9.144532h54.859376c5.046874-.003906 9.136718-4.097656 9.140624-9.144532zm0 0"/><path d="m493.714844 146.730469v-18.285157h-475.429688v18.285157c.003906 5.050781 4.097656 9.140625 9.144532 9.144531h457.140624c5.046876-.003906 9.140626-4.09375 9.144532-9.144531zm0 0"/><path d="m428.527344 421.019531h38.945312c10.074219-66.671875 10.074219-134.476562 0-201.144531h-38.945312c-10.074219 66.667969-10.074219 134.472656 0 201.144531zm0 0"/><path d="m300.527344 421.019531h38.945312c10.074219-66.671875 10.074219-134.476562 0-201.144531h-38.945312c-10.074219 66.667969-10.074219 134.472656 0 201.144531zm0 0"/><path d="m502.855469 485.019531h-493.710938c-5.050781.003907-9.14062475 4.09375-9.144531 9.140625v18.285156h512v-18.285156c-.003906-5.046875-4.09375-9.136718-9.144531-9.140625zm0 0"/></svg>